<svg width="40" height="39" viewBox="0 0 40 39" fill="none" xmlns="http://www.w3.org/2000/svg">
<path d="M33.3987 30.0276H6.6012V30.9847H33.3987V30.0276Z" fill="#374151"/>
<path d="M32.4417 28.1135H7.55823V29.0706H32.4417V28.1135Z" fill="#374151"/>
<path d="M8.99381 17.1074H9.95087L9.73553 26.1994H8.53921V27.1565H31.5085V26.1994H30.3122L30.0969 17.1074H31.0539V15.1933H32.4895V12.3221H31.1257L19.9999 6.77118L8.87418 12.3221H7.55823V15.1933H8.99381V17.1074ZM12.822 15.1933V16.1503H9.95087V15.1933H12.822ZM23.3496 17.1074L23.565 26.1994H22.1533L22.3687 17.1074H23.3496ZM24.3067 17.1074H25.2638V15.1933H26.2208V17.1074H27.1779L26.9625 26.1994H24.546L24.3067 17.1074ZM24.3067 16.1503H21.4355V15.1933H24.3067V16.1503ZM21.4355 17.1074L21.2202 26.1994H18.8036L18.5883 17.1074H19.5453V15.1933H20.5024V17.1074H21.4355ZM17.6073 17.1074L17.8226 26.1994H16.411L16.6263 17.1074H17.6073ZM18.5644 16.1503H15.6932V15.1933H18.5644V16.1503ZM15.6932 17.1074L15.4779 26.1994H13.0613L12.846 17.1074H13.803V15.1933H14.7601V17.1074H15.6932ZM10.9079 17.1074H11.8889L12.1042 26.1994H10.6926L10.9079 17.1074ZM29.3312 26.1994H27.9196L28.1349 17.1074H29.1159L29.3312 26.1994ZM30.049 16.1503H27.1779V15.1933H30.049V16.1503ZM19.9999 7.84787L28.9723 12.3221H11.0276L19.9999 7.84787ZM8.51528 13.2792H31.4846V14.2362H8.51528V13.2792Z" fill="#374151"/>
</svg>
