<svg width="40" height="39" viewBox="0 0 40 39" fill="none" xmlns="http://www.w3.org/2000/svg">
<path d="M26.2209 7.5368H16.1718C15.3822 7.5368 14.7362 8.18282 14.7362 8.97239V18.1601L11.2669 21.6294C10.908 21.9883 10.6927 22.4429 10.597 22.9215L10.0467 26.2233L8.80249 27.4675L9.47243 28.1374L10.9319 26.6779L11.5301 23.065C11.5779 22.7779 11.7215 22.4908 11.9368 22.2755L16.9135 17.2988C17.6553 18.0405 17.6553 19.2607 16.9135 20.0024L15.7651 21.1509C15.4301 21.4859 15.2865 21.9883 15.3822 22.4669L16.0522 25.6969L16.0761 25.7448C16.4589 26.9411 16.1718 28.2331 15.2865 29.1423L14.2577 30.1951L14.9516 30.865L15.9804 29.8123C16.3393 29.4534 16.6264 29.0227 16.8418 28.5681H21.9381L18.6602 31.846C18.0381 32.4681 17.081 32.5638 16.3393 32.1331L14.9516 33.5209L15.6215 34.1908L16.5786 33.2337C17.5356 33.4969 18.6123 33.2337 19.354 32.492L23.3019 28.5442H26.2687C27.0583 28.5442 27.7043 27.8982 27.7043 27.1086V8.92453C27.6565 8.18282 27.0105 7.5368 26.2209 7.5368ZM16.1718 8.49386H26.2209C26.4841 8.49386 26.6994 8.7092 26.6994 8.97239V9.92944H15.6933V8.97239C15.6933 8.7092 15.9086 8.49386 16.1718 8.49386ZM16.4589 21.8687L17.6074 20.7202C18.7319 19.5957 18.7319 17.7773 17.6074 16.6528L16.9375 15.9828L15.6933 17.227V10.8865H26.6994V25.2423H16.9375L16.3393 22.2994C16.2914 22.1319 16.3393 21.9644 16.4589 21.8687ZM26.2209 27.635H17.1049C17.2006 27.1564 17.2006 26.6779 17.1289 26.1994H26.6994V27.1564C26.6994 27.4196 26.4841 27.635 26.2209 27.635Z" fill="#374151"/>
</svg>
