<svg width="40" height="39" viewBox="0 0 40 39" fill="none" xmlns="http://www.w3.org/2000/svg">
<path d="M27.1779 28.1135C26.1251 28.1135 25.2638 28.9749 25.2638 30.0276C25.2638 31.0804 26.1251 31.9417 27.1779 31.9417C28.2307 31.9417 29.092 31.0804 29.092 30.0276C29.092 28.9749 28.2307 28.1135 27.1779 28.1135ZM27.1779 30.9847C26.6515 30.9847 26.2208 30.554 26.2208 30.0276C26.2208 29.5013 26.6515 29.0706 27.1779 29.0706C27.7043 29.0706 28.135 29.5013 28.135 30.0276C28.135 30.554 27.7043 30.9847 27.1779 30.9847Z" fill="#374151"/>
<path d="M12.8221 28.1135C11.7693 28.1135 10.908 28.9749 10.908 30.0276C10.908 31.0804 11.7693 31.9417 12.8221 31.9417C13.8748 31.9417 14.7362 31.0804 14.7362 30.0276C14.7362 28.9749 13.8748 28.1135 12.8221 28.1135ZM12.8221 30.9847C12.2957 30.9847 11.865 30.554 11.865 30.0276C11.865 29.5013 12.2957 29.0706 12.8221 29.0706C13.3485 29.0706 13.7791 29.5013 13.7791 30.0276C13.7791 30.554 13.3485 30.9847 12.8221 30.9847Z" fill="#374151"/>
<path d="M28.5178 24.2853L30.6233 13.7577H10.1423L9.37666 9.92944H6.6012V10.8865H8.61101L11.2668 24.1417L10.2619 27.1564H29.5944V26.1994H11.5779L12.2239 24.2853H28.5178ZM20.4785 18.5429V14.7147H24.4981L24.1153 18.5429H20.4785ZM24.0196 19.5L23.6368 23.3282H20.4785V19.5H24.0196ZM19.5214 18.5429H15.8846L15.5018 14.7147H19.5214V18.5429ZM19.5214 19.5V23.3282H16.3632L15.9803 19.5H19.5214ZM15.4061 23.3282H12.0564L11.2908 19.5H15.0233L15.4061 23.3282ZM24.5938 23.3282L24.9767 19.5H28.5178L27.7521 23.3282H24.5938ZM28.7092 18.5429H25.0724L25.4552 14.7147H29.4748L28.7092 18.5429ZM14.5448 14.7147L14.9276 18.5429H11.0994L10.3337 14.7147H14.5448Z" fill="#374151"/>
</svg>
