<svg width="40" height="39" viewBox="0 0 40 39" fill="none" xmlns="http://www.w3.org/2000/svg">
<path d="M7.55823 22.8497H11.1472V26.7258L10.4294 26.008L7.70179 28.7356L8.37172 29.4055L9.23307 28.5442L14.0662 33.3773L13.2049 34.2386L13.8748 34.9086L16.6024 32.181L15.9564 31.535L28.8049 24.6442C29.4269 24.3092 29.8098 23.6632 29.8098 22.9693V22.8736H33.3987V20.0024H7.55823V22.8497ZM14.7361 32.7073L9.90301 27.8742L10.4294 27.3478L15.2625 32.181L14.7361 32.7073ZM28.8527 22.9454C28.8527 23.3043 28.6613 23.6153 28.3503 23.7828L15.2625 30.8172L12.1042 27.6589V22.8497H12.4153C12.846 22.8497 13.2288 23.1368 13.3484 23.5675L13.8748 25.7208C13.9944 26.2472 14.3533 26.7018 14.8318 26.9411C15.3104 27.2043 15.8846 27.2282 16.3871 27.0607L27.9674 22.8497H28.8288V22.9454H28.8527ZM25.168 22.8497L20.4067 24.5963L21.8901 22.8497H25.168ZM18.5644 25.2423L18.5404 25.2662L18.7558 22.8497H20.622L18.5644 25.2423ZM17.5595 25.6251L16.076 26.1515C15.8128 26.2472 15.5496 26.2233 15.3104 26.1037C15.0711 25.984 14.9036 25.7687 14.8318 25.4816L14.3055 23.3282C14.2576 23.1607 14.1858 22.9932 14.1141 22.8258H17.8466L17.5595 25.6251ZM8.51528 21.8926V20.9356H32.4417V21.8926H8.51528Z" fill="#374151"/>
<path d="M20.4784 8.01533C26.5558 8.01533 31.4846 12.9442 31.4846 19.0215H32.4416C32.4416 12.5853 27.3214 7.32147 20.957 7.0822V6.10122H21.914V5.14417H19.0429V6.10122H19.9999V7.0822C13.6355 7.34539 8.51526 12.5853 8.51526 19.0215H9.47231C9.47231 12.9442 14.4011 8.01533 20.4784 8.01533Z" fill="#374151"/>
</svg>
