<svg width="40" height="39" viewBox="0 0 40 39" fill="none" xmlns="http://www.w3.org/2000/svg">
<path d="M32.9203 32.8988V16.6289H28.6135V12.8006L30.5276 9.92948H24.3068V6.10126H15.6933V9.92948H9.47241L11.3865 12.8006V16.6289H7.07977V32.8988H32.9203ZM28.7331 10.8865L28.0871 11.8436H24.3068V10.8865H28.7331ZM16.6503 7.05831H23.3497V13.7577H16.6503V7.05831ZM11.2669 10.8865H15.6933V11.8436H11.889L11.2669 10.8865ZM8.03683 31.9418V17.5859H11.3865V31.9418H8.03683ZM22.8712 31.9418H20.4785V29.5491H20.9571V28.5921H20.4785V26.1994H22.8712V31.9418ZM19.5215 28.5921H19.043V29.5491H19.5215V31.9418H17.1289V26.1994H19.5215V28.5921ZM27.6565 31.9418H23.8282V25.2424H16.1718V31.9418H12.3436V12.8006H15.6933V14.7148H24.3068V12.8006H27.6565V31.9418ZM31.9632 17.5859V31.9418H28.6135V17.5859H31.9632Z" fill="#374151"/>
<path d="M20.9571 23.3282H25.7424V16.6288H20.9571V23.3282ZM21.9141 22.3712V20.4571H24.7853V22.3712H21.9141ZM24.7853 17.5859V19.5H21.9141V17.5859H24.7853Z" fill="#374151"/>
<path d="M14.2577 23.3282H19.043V16.6288H14.2577V23.3282ZM15.2147 22.3712V20.4571H18.0859V22.3712H15.2147ZM18.0859 17.5859V19.5H15.2147V17.5859H18.0859Z" fill="#374151"/>
<path d="M20.4786 8.4939H19.5215V9.92948H18.0859V10.8865H19.5215V12.3221H20.4786V10.8865H21.9142V9.92948H20.4786V8.4939Z" fill="#374151"/>
</svg>
