<svg width="40" height="40" viewBox="0 0 40 40" fill="none" xmlns="http://www.w3.org/2000/svg">
<g clip-path="url(#clip0_4_198)">
<path d="M20 -3.05176e-05C8.95444 -3.05176e-05 0 8.95441 0 20C0 31.0455 8.95444 40 20 40C31.0456 40 40 31.0455 40 20C40 8.95441 31.0456 -3.05176e-05 20 -3.05176e-05ZM20 38.4C9.83778 38.4 1.6 30.1622 1.6 20C1.6 9.83775 9.83778 1.59997 20 1.59997C30.1622 1.59997 38.4 9.83775 38.4 20C38.4 30.1622 30.1622 38.4 20 38.4Z" fill="black"/>
<path d="M20.7 22.2H24.3V29.4H25.9V22.2H29.5V20.6H20.7V22.2Z" fill="black"/>
<path d="M18.5683 20.4L15.1 23.8689L11.6317 20.4L10.5 21.5317L13.9689 25L10.5 28.4683L11.6317 29.6L15.1 26.1311L18.5683 29.6L19.7 28.4683L16.2311 25L19.7 21.5317L18.5683 20.4Z" fill="black"/>
<path d="M25 19.4C27.485 19.4 29.5 17.385 29.5 14.9H27.9C27.9 16.5017 26.6017 17.8 25 17.8C24.5428 17.8 24.1106 17.6939 23.7261 17.5056L27.6056 13.6261L28.7767 12.455C27.9744 11.2189 26.5833 10.4006 25 10.4006C22.5144 10.4006 20.5 12.4156 20.5 14.9006C20.5 17.3856 22.5144 19.4 25 19.4ZM25 12C25.5622 12 26.0867 12.1606 26.5311 12.4378L22.5378 16.4311C22.2606 15.9867 22.1006 15.4622 22.1006 14.9C22.1 13.2983 23.3983 12 25 12Z" fill="black"/>
<path d="M15.1 14.4211L11.7256 10.4L10.5 11.4283L14.3 15.9572V19.4H15.9V15.9572L19.7 11.4283L18.4744 10.4L15.1 14.4211Z" fill="black"/>
</g>
<defs>
<clipPath id="clip0_4_198">
<rect width="40" height="40" rx="20" fill="white"/>
</clipPath>
</defs>
</svg>
