<svg width="40" height="39" viewBox="0 0 40 39" fill="none" xmlns="http://www.w3.org/2000/svg">
<path d="M32.4417 23.3282H31.9632C31.4368 23.3282 31.0061 22.8976 31.0061 22.3712V21.4859C33.2791 20.0503 34.8344 16.9877 34.8344 13.7577C34.8344 9.25953 31.8436 6.57977 28.135 6.57977C25.6945 6.57977 23.589 7.75217 22.3926 9.80983C22.7037 9.90554 23.0147 10.0252 23.3018 10.1448C24.2828 8.49388 25.9816 7.5129 28.135 7.5129C31.5804 7.5129 33.8773 10.0012 33.8773 13.7338C33.8773 14.3798 33.8055 15.0258 33.6859 15.6479H32.9202V12.6331C32.9202 12.1307 32.681 11.6761 32.2503 11.4129C31.8436 11.1497 31.3172 11.1258 30.8626 11.3172L30.4798 11.5086C29.0681 12.1785 27.465 12.3939 25.8859 12.1785C26.1491 12.4896 26.3644 12.8485 26.5798 13.2074C28.0632 13.2792 29.5706 13.016 30.8865 12.3939L31.2693 12.2025C31.4129 12.1307 31.5804 12.1307 31.7239 12.2264C31.8675 12.3221 31.9393 12.4657 31.9393 12.6331V16.6289H33.3988C32.5135 19.3804 30.408 21.4141 28.111 21.4141C27.7521 21.4141 27.3693 21.3663 27.0104 21.2706C26.9147 21.5816 26.7951 21.8687 26.6515 22.1558C27.1061 22.2994 27.6086 22.3712 28.0871 22.3712C28.7571 22.3712 29.4031 22.2276 30.0012 21.9884V22.3712C30.0012 22.9693 30.2644 23.4957 30.6951 23.8546C29.9055 24.1417 29.0202 24.2853 28.0871 24.2853C27.2258 24.2853 26.3883 24.1417 25.6466 23.9025C25.4552 24.1896 25.2399 24.4528 25.0006 24.692C25.9337 25.027 26.9626 25.2424 28.0871 25.2424C29.5945 25.2424 30.9822 24.8835 32.0828 24.2853H32.3939C34.2362 24.2853 35.7436 25.7927 35.7436 27.635V28.1135H28.3264C28.5656 28.4006 28.781 28.7356 28.9485 29.0706H36.7006V27.635C36.7485 25.2663 34.8104 23.3282 32.4417 23.3282Z" fill="#374151"/>
<path d="M4.20858 28.1135V27.635C4.20858 25.7927 5.71594 24.2853 7.55827 24.2853H7.86932C8.99386 24.8835 10.3816 25.2423 11.865 25.2423C12.9896 25.2423 14.0184 25.0509 14.9515 24.692C14.7362 24.4528 14.5208 24.1657 14.3055 23.9025C13.5638 24.1417 12.7264 24.2853 11.865 24.2853C10.9319 24.2853 10.0466 24.1178 9.25705 23.8546C9.68772 23.4957 9.95091 22.9693 9.95091 22.3712V21.8448C10.3577 22.108 10.7883 22.2755 11.2429 22.3473C11.4343 22.3712 11.6497 22.3951 11.865 22.3951C12.3675 22.3951 12.846 22.3233 13.3006 22.1558C13.181 21.8448 13.0613 21.5338 12.9417 21.2227C12.5828 21.3423 12.2239 21.4141 11.865 21.4141C11.6975 21.4141 11.5301 21.4141 11.3626 21.3902C9.44846 21.1509 8.0368 17.9687 8.0368 16.0307V12.4417C8.0368 12.2025 8.20429 12.0828 8.25214 12.035C8.29999 12.0111 8.3957 11.9632 8.51533 11.9632C8.58711 11.9632 8.65889 11.9871 8.73067 12.0111C10.1662 12.7289 11.7693 13.1595 13.3724 13.2552C13.5638 12.9203 13.7552 12.6092 13.9945 12.3221C12.3196 12.2982 10.6448 11.8914 9.16134 11.1497C8.70674 10.9344 8.18036 10.9583 7.77361 11.2215C7.34294 11.4847 7.10367 11.9393 7.10367 12.4417V16.0307C7.10367 17.5381 7.82146 19.6436 9.01778 21.0074V21.9405C7.74968 22.0123 6.48159 21.773 5.33312 21.2227C5.8595 20.0264 6.14662 18.7104 6.14662 17.3706V13.7577C6.14662 10.0252 8.44355 7.53683 11.8889 7.53683C14.0423 7.53683 15.7411 8.51781 16.7221 10.1687C17.0092 10.0252 17.3202 9.92947 17.6313 9.83376C16.4589 7.75216 14.3294 6.6037 11.9129 6.6037C8.20429 6.6037 5.21349 9.28345 5.21349 13.7816V17.3945C5.21349 18.7104 4.90244 20.0503 4.30429 21.2227L4.08895 21.6295L4.4957 21.8448C5.76379 22.5387 7.17545 22.9215 8.61103 22.9215C8.70674 22.9215 8.80244 22.9215 8.87422 22.9215C8.70674 23.1847 8.41962 23.3522 8.08465 23.3522H7.60613C5.23741 23.3522 3.29938 25.2902 3.29938 27.6589V29.0945H11.0515C11.219 28.7595 11.4343 28.4246 11.6736 28.1374H4.20858V28.1135Z" fill="#374151"/>
<path d="M24.3067 27.1565H23.8282C23.3018 27.1565 22.8711 26.7258 22.8711 26.1994V25.3142C25.1441 23.8786 26.6994 20.816 26.6994 17.5859C26.6994 13.0878 23.7086 10.408 20 10.408C16.2914 10.408 13.3006 13.0878 13.3006 17.5859C13.3006 20.8399 14.8558 23.8786 17.1288 25.3142V26.1994C17.1288 26.7258 16.6981 27.1565 16.1718 27.1565H15.6932C13.3245 27.1565 11.3865 29.0945 11.3865 31.4632V32.8988H28.6135V31.4632C28.6135 29.0945 26.6754 27.1565 24.3067 27.1565ZM20 11.3651C22.9668 11.3651 25.0724 13.2313 25.6227 16.1264L25.4552 16.1025C24.2349 15.8632 23.1343 15.2651 22.273 14.4037L21.938 14.0688L21.603 14.4037C20.7895 15.2172 19.7846 15.7915 18.6601 16.0546L18.9951 13.4227L18.0141 14.4037C17.2245 15.1933 15.9325 15.8393 14.5926 16.1025L14.3773 16.1264C14.9276 13.2313 17.0331 11.3651 20 11.3651ZM14.2576 17.5859C14.2576 17.4184 14.2576 17.2749 14.2816 17.1074L14.7601 17.0117C15.8368 16.7964 16.8656 16.3657 17.703 15.8154L17.5356 17.227L18.5883 17.0117C19.8325 16.7724 20.981 16.1982 21.9141 15.3608C22.8711 16.1982 23.9957 16.7485 25.2399 17.0117L25.6466 17.0835H25.7184C25.7184 17.251 25.7423 17.3945 25.7423 17.562C25.7423 21.6295 23.0625 25.2185 20 25.2185C16.9374 25.2185 14.2576 21.6534 14.2576 17.5859ZM22.6079 27.6829C21.8184 27.97 20.9331 28.1135 20 28.1135C19.0668 28.1135 18.1816 27.9461 17.392 27.6829C17.8227 27.324 18.0859 26.7976 18.0859 26.1994V25.8166C18.684 26.0559 19.33 26.1994 20 26.1994C20.6699 26.1994 21.3159 26.0559 21.9141 25.8166V26.1994C21.9141 26.7976 22.1773 27.324 22.6079 27.6829ZM27.6564 31.9418H12.3435V31.4632C12.3435 29.6209 13.8509 28.1135 15.6932 28.1135H16.0043C17.1288 28.7117 18.5165 29.0706 20 29.0706C21.4834 29.0706 22.8951 28.7117 23.9957 28.1135H24.3067C26.1491 28.1135 27.6564 29.6209 27.6564 31.4632V31.9418Z" fill="#374151"/>
</svg>
