<svg width="40" height="39" viewBox="0 0 40 39" fill="none" xmlns="http://www.w3.org/2000/svg">
<path d="M6.1227 10.8865H29.092V15.6718H30.0491V10.8865C30.0491 10.3601 29.6184 9.92944 29.092 9.92944H6.1227C5.59632 9.92944 5.16565 10.3601 5.16565 10.8865V25.2423C5.16565 25.7687 5.59632 26.1994 6.1227 26.1994H15.0951L14.8558 28.1135H13.3006V29.0705H14.7362H20.4785H21.9141V28.1135H20.3589L20.1196 26.1994H26.2209V25.2423H20H15.2147H6.1227V23.8067H26.2209V22.8497H6.1227V10.8865ZM19.1626 26.1994L19.4018 28.1135H15.8129L16.0522 26.1994H19.1626Z" fill="#374151"/>
<path d="M33.8773 16.6288H28.135C27.6086 16.6288 27.1779 17.0595 27.1779 17.5859V28.1135C27.1779 28.6399 27.6086 29.0706 28.135 29.0706H33.8773C34.4037 29.0706 34.8344 28.6399 34.8344 28.1135V17.5859C34.8344 17.0595 34.4037 16.6288 33.8773 16.6288ZM33.8773 17.5859V18.543H28.135V17.5859H33.8773ZM33.8773 19.5V26.1994H28.135V19.5H33.8773ZM28.135 28.1135V27.1565H33.8773V28.1135H28.135Z" fill="#374151"/>
</svg>
